<svg xmlns="http://www.w3.org/2000/svg" viewBox="0 0 512 512" width="512" height="512">
  <defs>
    <linearGradient id="bg" x1="0" y1="0" x2="0" y2="1">
      <stop offset="0" stop-color="#241d38"/>
      <stop offset="0.55" stop-color="#15131f"/>
      <stop offset="1" stop-color="#0d1117"/>
    </linearGradient>
    <radialGradient id="glow" cx="0.5" cy="0.42" r="0.55">
      <stop offset="0" stop-color="#a78bfa" stop-opacity="0.32"/>
      <stop offset="1" stop-color="#a78bfa" stop-opacity="0"/>
    </radialGradient>
  </defs>
  <rect width="512" height="512" fill="url(#bg)"/>
  <rect width="512" height="512" fill="url(#glow)"/>
  <g fill="none" stroke="#e6e9ef" stroke-opacity="0.82" stroke-width="13" stroke-linecap="round">
    <path d="M256 212 C 205 250 175 278 150 318"/>
    <path d="M256 212 C 307 250 337 278 362 318"/>
    <path d="M256 212 C 256 290 256 340 256 392"/>
    <path d="M150 318 C 120 300 105 275 96 250"/>
    <path d="M362 318 C 392 300 407 275 416 250"/>
  </g>
  <g stroke="#0d1117" stroke-opacity="0.18" stroke-width="2">
    <circle cx="256" cy="212" r="40" fill="#a78bfa"/>
    <circle cx="150" cy="318" r="26" fill="#5fd9a4"/>
    <circle cx="362" cy="318" r="26" fill="#f0b429"/>
    <circle cx="256" cy="392" r="26" fill="#5fd9a4"/>
    <circle cx="96" cy="250" r="16" fill="#5fd9a4"/>
    <circle cx="416" cy="250" r="16" fill="#f0b429"/>
  </g>
</svg>